<svg xmlns="http://www.w3.org/2000/svg" xmlns:xlink="http://www.w3.org/1999/xlink" width="500" zoomAndPan="magnify" viewBox="0 0 375 374.999991" height="500" preserveAspectRatio="xMidYMid meet" version="1.0"><defs><g/><clipPath id="2cbcd21ebd"><path d="M 218 23 L 307.027344 23 L 307.027344 116 L 218 116 Z M 218 23 " clip-rule="nonzero"/></clipPath><clipPath id="5f5c33fc99"><path d="M 74 21.679688 L 297 21.679688 L 297 121 L 74 121 Z M 74 21.679688 " clip-rule="nonzero"/></clipPath><clipPath id="48dddbb695"><path d="M 74 21.679688 L 297 21.679688 L 297 137 L 74 137 Z M 74 21.679688 " clip-rule="nonzero"/></clipPath><clipPath id="8e4e2c4d86"><path d="M 74 21.679688 L 266 21.679688 L 266 154 L 74 154 Z M 74 21.679688 " clip-rule="nonzero"/></clipPath><clipPath id="5dfcf561f3"><path d="M 74 147 L 307.027344 147 L 307.027344 284 L 74 284 Z M 74 147 " clip-rule="nonzero"/></clipPath></defs><rect x="-37.5" width="450" fill="#ffffff" y="-37.499999" height="449.999989" fill-opacity="1"/><rect x="-37.5" width="450" fill="#ffffff" y="-37.499999" height="449.999989" fill-opacity="1"/><path fill="#e6e6e6" d="M 302.265625 263.59375 C 302.265625 263.59375 129.464844 265.203125 123.914062 262.308594 C 117.683594 259.054688 123.914062 31.464844 123.914062 31.464844 C 123.914062 31.464844 293.296875 27.675781 297.800781 31.464844 C 302.304688 35.253906 302.265625 263.59375 302.265625 263.59375 Z M 302.265625 263.59375 " fill-opacity="1" fill-rule="nonzero"/><path fill="#ff7e74" d="M 271.867188 72.691406 C 273.78125 70.789062 274.992188 68.011719 274.992188 64.917969 C 274.992188 59.1875 270.855469 54.546875 265.746094 54.546875 C 260.640625 54.546875 256.5 59.1875 256.5 64.917969 C 256.5 67.867188 257.597656 70.527344 259.363281 72.414062 C 254.34375 74.6875 250.847656 79.738281 250.847656 85.605469 C 250.847656 85.605469 250.847656 89.722656 250.847656 89.722656 C 250.847656 89.722656 279.804688 89.722656 279.804688 89.722656 C 279.804688 89.722656 279.804688 85.605469 279.804688 85.605469 C 279.804688 79.964844 276.574219 75.078125 271.867188 72.691406 Z M 271.867188 72.691406 " fill-opacity="1" fill-rule="nonzero"/><g clip-path="url(#2cbcd21ebd)"><path stroke-linecap="round" transform="matrix(0.3, 0, 0, 0.3, 265.327283, 69.408437)" fill="none" stroke-linejoin="miter" d="M 70.393436 67.714068 C 70.393436 67.714068 -70.387823 67.714068 -70.387823 67.714068 C -70.387823 67.714068 -70.387823 -67.715628 -70.387823 -67.715628 C -70.387823 -67.715628 70.393436 -67.715628 70.393436 -67.715628 C 70.393436 -67.715628 70.393436 67.714068 70.393436 67.714068 Z M 70.393436 67.714068 " stroke="#313131" stroke-width="6" stroke-opacity="1" stroke-miterlimit="10"/></g><g clip-path="url(#5f5c33fc99)"><path stroke-linecap="round" transform="matrix(0.3, 0, 0, 0.3, 58.477297, 29.781139)" fill="none" stroke-linejoin="miter" d="M 278.474134 75.924853 C 278.474134 75.924853 566.468944 75.924853 566.468944 75.924853 " stroke="#313131" stroke-width="16" stroke-opacity="1" stroke-miterlimit="10"/></g><g clip-path="url(#48dddbb695)"><path stroke-linecap="round" transform="matrix(0.3, 0, 0, 0.3, 58.477297, 29.781139)" fill="none" stroke-linejoin="miter" d="M 278.474134 128.880585 C 278.474134 128.880585 566.468944 128.880585 566.468944 128.880585 " stroke="#313131" stroke-width="16" stroke-opacity="1" stroke-miterlimit="10"/></g><g clip-path="url(#8e4e2c4d86)"><path stroke-linecap="round" transform="matrix(0.3, 0, 0, 0.3, 58.477297, 29.781139)" fill="none" stroke-linejoin="miter" d="M 278.474134 185.521214 C 278.474134 185.521214 465.023625 185.521214 465.023625 185.521214 " stroke="#313131" stroke-width="16" stroke-opacity="1" stroke-miterlimit="10"/></g><g clip-path="url(#5dfcf561f3)"><path stroke-linecap="round" transform="matrix(0.3, 0, 0, 0.3, 58.477297, 29.781139)" fill="none" stroke-linejoin="miter" d="M 278.474134 618.229576 C 278.474134 618.229576 703.578328 618.229576 703.578328 618.229576 " stroke="#313131" stroke-width="16" stroke-opacity="1" stroke-miterlimit="10"/></g><path stroke-linecap="round" transform="matrix(0.3, 0, 0, 0.3, 58.477297, 29.781139)" fill="none" stroke-linejoin="miter" d="M 278.474134 676.250413 C 278.474134 676.250413 520.570504 676.250413 520.570504 676.250413 " stroke="#313131" stroke-width="16" stroke-opacity="1" stroke-miterlimit="10"/><path fill="#ff7e74" d="M 159.617188 124.933594 C 159.617188 124.933594 159.617188 138.324219 159.617188 138.324219 C 159.617188 141.71875 166.886719 144.46875 175.855469 144.46875 C 184.824219 144.46875 192.09375 141.71875 192.09375 138.324219 C 192.09375 138.324219 192.09375 124.933594 192.09375 124.933594 C 192.09375 124.933594 159.617188 124.933594 159.617188 124.933594 Z M 159.617188 124.933594 " fill-opacity="1" fill-rule="nonzero"/><path fill="#ff7e74" d="M 174.433594 134.730469 C 174.433594 134.730469 151.5 125.785156 151.5 125.785156 C 150.199219 125.277344 150.195312 123.28125 151.496094 122.769531 C 151.496094 122.769531 174.425781 113.753906 174.425781 113.753906 C 175.398438 113.371094 176.46875 113.371094 177.441406 113.757812 C 177.441406 113.757812 200.171875 122.769531 200.171875 122.769531 C 201.46875 123.285156 201.464844 125.273438 200.167969 125.785156 C 200.167969 125.785156 177.433594 134.726562 177.433594 134.726562 C 176.464844 135.109375 175.402344 135.109375 174.433594 134.730469 Z M 174.433594 134.730469 " fill-opacity="1" fill-rule="nonzero"/><path stroke-linecap="round" transform="matrix(0.3, 0, 0, 0.3, 176.140277, 131.279538)" fill="none" stroke-linejoin="miter" d="M -52.616031 -9.825022 C -34.81655 -1.374501 -16.339987 5.214041 2.50116 9.823416 C 19.063661 3.260916 36.068871 -2.741689 52.618351 -9.304189 " stroke="#313131" stroke-width="6" stroke-opacity="1" stroke-miterlimit="10"/><path stroke-linecap="round" transform="matrix(0.3, 0, 0, 0.3, 187.515081, 131.626031)" fill="none" stroke-linejoin="miter" d="M -39.69871 -33.414896 C -39.69871 -33.414896 -13.370583 -31.76125 -0.128395 -31.188333 C 13.113793 -30.615416 27.879419 -25.602395 33.556503 -12.620624 C 39.702337 1.402815 36.342962 33.408025 36.342962 33.408025 " stroke="#313131" stroke-width="6" stroke-opacity="1" stroke-miterlimit="10"/><path fill="#ff7e74" d="M 195.394531 146.640625 C 195.394531 144.664062 196.871094 139.59375 198.695312 139.59375 C 200.515625 139.59375 201.992188 144.664062 201.992188 146.640625 C 201.992188 148.613281 200.515625 150.800781 198.695312 150.800781 C 196.871094 150.800781 195.394531 148.613281 195.394531 146.640625 Z M 195.394531 146.640625 " fill-opacity="1" fill-rule="nonzero"/><path fill="#ff7e74" d="M 239.789062 148.679688 C 239.789062 148.679688 237.253906 145.410156 237.253906 145.410156 C 237.066406 145.171875 236.777344 145.101562 236.503906 145.230469 C 236.503906 145.230469 232.757812 146.980469 232.757812 146.980469 C 232.1875 147.246094 231.679688 146.648438 231.855469 145.917969 C 231.855469 145.917969 236.078125 128.457031 236.078125 128.457031 C 236.203125 127.9375 236.625 127.597656 237.019531 127.695312 C 237.019531 127.695312 244.800781 129.574219 244.800781 129.574219 C 245.199219 129.671875 245.417969 130.167969 245.292969 130.683594 C 245.292969 130.683594 241.074219 148.144531 241.074219 148.144531 C 240.894531 148.875 240.171875 149.175781 239.789062 148.679688 Z M 239.789062 148.679688 " fill-opacity="1" fill-rule="nonzero"/><path fill="#ff7e74" d="M 248.578125 148.679688 C 248.578125 148.679688 251.113281 145.410156 251.113281 145.410156 C 251.296875 145.171875 251.585938 145.101562 251.859375 145.230469 C 251.859375 145.230469 255.609375 146.980469 255.609375 146.980469 C 256.175781 147.246094 256.683594 146.648438 256.507812 145.917969 C 256.507812 145.917969 252.285156 128.457031 252.285156 128.457031 C 252.160156 127.9375 251.738281 127.597656 251.34375 127.695312 C 251.34375 127.695312 243.5625 129.574219 243.5625 129.574219 C 243.167969 129.671875 242.945312 130.167969 243.070312 130.683594 C 243.070312 130.683594 247.292969 148.144531 247.292969 148.144531 C 247.46875 148.875 248.191406 149.175781 248.578125 148.679688 Z M 248.578125 148.679688 " fill-opacity="1" fill-rule="nonzero"/><path fill="#ff7e74" d="M 257.371094 122.242188 C 257.371094 129.527344 251.46875 135.429688 244.183594 135.429688 C 236.898438 135.429688 230.992188 129.527344 230.992188 122.242188 C 230.992188 114.957031 236.898438 109.050781 244.183594 109.050781 C 251.46875 109.050781 257.371094 114.957031 257.371094 122.242188 Z M 257.371094 122.242188 " fill-opacity="1" fill-rule="nonzero"/><path stroke-linecap="round" transform="matrix(0.3, 0, 0, 0.3, 244.182089, 122.278629)" fill="none" stroke-linejoin="miter" d="M 1.424286 18.211864 C 1.424286 18.211864 12.544078 24.058218 12.544078 24.058218 C 14.783662 25.230093 17.400849 23.329051 16.971162 20.842072 C 16.971162 20.842072 14.848766 8.459259 14.848766 8.459259 C 14.679495 7.469675 15.005016 6.45405 15.721162 5.750925 C 15.721162 5.750925 24.718558 -3.012096 24.718558 -3.012096 C 26.528454 -4.78293 25.538871 -7.855846 23.02585 -8.22043 C 23.02585 -8.22043 10.590953 -10.030326 10.590953 -10.030326 C 9.60137 -10.173555 8.741995 -10.798555 8.299286 -11.696993 C 8.299286 -11.696993 2.73939 -22.973035 2.73939 -22.973035 C 1.619598 -25.23866 -1.622589 -25.23866 -2.742381 -22.973035 C -2.742381 -22.973035 -8.302277 -11.696993 -8.302277 -11.696993 C -8.744986 -10.798555 -9.604361 -10.173555 -10.593944 -10.030326 C -10.593944 -10.030326 -23.028841 -8.22043 -23.028841 -8.22043 C -25.528841 -7.855846 -26.531445 -4.78293 -24.721549 -3.012096 C -24.721549 -3.012096 -15.724153 5.750925 -15.724153 5.750925 C -15.008007 6.45405 -14.682486 7.469675 -14.851757 8.459259 C -14.851757 8.459259 -16.974153 20.842072 -16.974153 20.842072 C -17.40384 23.329051 -14.786653 25.230093 -12.547069 24.058218 C -12.547069 24.058218 -1.414256 18.211864 -1.414256 18.211864 C -0.528839 17.743114 0.525848 17.743114 1.424286 18.211864 Z M 1.424286 18.211864 " stroke="#313131" stroke-width="6" stroke-opacity="1" stroke-miterlimit="10"/><path stroke-linecap="round" transform="matrix(0.3, 0, 0, 0.3, 244.173094, 133.820835)" fill="none" stroke-linejoin="miter" d="M -28.701982 -5.626743 C -20.824377 1.078987 -10.642085 4.998258 -0.303543 5.310758 C 10.021979 5.623258 20.438646 2.315966 28.693855 -3.894972 " stroke="#313131" stroke-width="6" stroke-opacity="1" stroke-miterlimit="10"/><path fill="#ff7e74" d="M 188.574219 187.960938 C 188.574219 187.960938 163.941406 187.960938 163.941406 187.960938 C 163.941406 187.960938 163.941406 164.265625 163.941406 164.265625 C 163.941406 164.265625 188.574219 164.265625 188.574219 164.265625 C 188.574219 164.265625 188.574219 187.960938 188.574219 187.960938 Z M 188.574219 187.960938 " fill-opacity="1" fill-rule="nonzero"/><path fill="#ff7e74" d="M 256.457031 187.960938 C 256.457031 187.960938 231.820312 187.960938 231.820312 187.960938 C 231.820312 187.960938 231.820312 164.265625 231.820312 164.265625 C 231.820312 164.265625 256.457031 164.265625 256.457031 164.265625 C 256.457031 164.265625 256.457031 187.960938 256.457031 187.960938 Z M 256.457031 187.960938 " fill-opacity="1" fill-rule="nonzero"/><path fill="#ffc84d" d="M 141.3125 221.042969 C 134.492188 216.921875 126.972656 213.878906 119.480469 211.367188 C 115.144531 209.914062 109.726562 205.527344 105.199219 206.105469 C 102.285156 206.476562 65.960938 218.996094 65.378906 220.089844 C 54.691406 240.234375 56.566406 266.390625 69.964844 284.84375 C 87.058594 286.625 104.304688 288.472656 121.371094 290.5 C 127.0625 291.179688 138.199219 291.449219 143.269531 288.78125 C 146.914062 286.859375 144.523438 283.789062 146.4375 280.136719 C 148.347656 276.484375 149.628906 272.542969 151.277344 268.765625 C 154.878906 260.507812 160.386719 252.347656 159.460938 243.386719 C 158.835938 237.351562 155.25 231.933594 150.710938 227.902344 C 147.800781 225.316406 144.640625 223.050781 141.3125 221.042969 Z M 141.3125 221.042969 " fill-opacity="1" fill-rule="nonzero"/><path fill="#8f62f6" d="M 114.761719 302.757812 C 114.761719 302.757812 108.5625 299.070312 108.5625 299.070312 C 105.097656 297.011719 103.957031 292.527344 106.019531 289.0625 C 106.019531 289.0625 162.753906 193.652344 162.753906 193.652344 C 162.753906 193.652344 181.507812 204.804688 181.507812 204.804688 C 181.507812 204.804688 124.773438 300.214844 124.773438 300.214844 C 122.710938 303.679688 118.230469 304.820312 114.761719 302.757812 Z M 114.761719 302.757812 " fill-opacity="1" fill-rule="nonzero"/><path fill="#8f62f6" d="M 222.820312 109.546875 C 196.742188 94.039062 163.027344 102.609375 147.515625 128.6875 C 132.007812 154.769531 140.578125 188.484375 166.660156 203.992188 C 192.738281 219.5 226.453125 210.929688 241.960938 184.851562 C 257.472656 158.769531 248.902344 125.054688 222.820312 109.546875 Z M 234.398438 180.351562 C 221.375 202.257812 193.058594 209.453125 171.15625 196.429688 C 149.253906 183.40625 142.054688 155.089844 155.082031 133.1875 C 168.105469 111.285156 196.417969 104.085938 218.324219 117.113281 C 240.226562 130.136719 247.421875 158.449219 234.398438 180.351562 Z M 234.398438 180.351562 " fill-opacity="1" fill-rule="nonzero"/><path stroke-linecap="round" transform="matrix(0.3, 0, 0, 0.3, 226.695986, 157.250834)" fill="none" stroke-linejoin="miter" d="M -18.843391 -87.854347 C 4.750361 -65.224137 18.643591 -32.80226 18.734737 -0.106946 C 18.838903 32.575348 5.140986 65.088371 -18.296516 87.86181 " stroke="#313131" stroke-width="6" stroke-opacity="1" stroke-miterlimit="10"/><path fill="#ffc84d" d="M 165.222656 248.53125 C 165.222656 248.53125 165.273438 249.023438 165.476562 250.488281 C 165.832031 253.085938 165.609375 255.609375 164.21875 257.902344 C 162.925781 260.03125 156.855469 263.199219 156.855469 263.199219 C 156.855469 263.199219 158.398438 267.910156 156.140625 272.007812 C 154.253906 275.429688 149.015625 276.808594 149.015625 276.808594 C 149.015625 276.808594 148.734375 280.722656 148.425781 282.277344 C 148.070312 284.058594 147.207031 285.757812 145.964844 287.085938 C 143.253906 289.980469 139.539062 289.035156 135.570312 288.949219 C 131.605469 288.863281 127.761719 287.59375 124.074219 286.128906 C 118.976562 284.097656 109.34375 279.089844 108.625 273.960938 C 108.121094 270.363281 110.222656 266.085938 113.316406 264.175781 C 111.839844 261.507812 111.519531 258.226562 112.441406 255.320312 C 113.367188 252.414062 116.847656 249.5625 119.59375 248.234375 C 116.621094 245.332031 118.0625 238.671875 120.496094 235.304688 C 122.929688 231.9375 126.945312 231.425781 131.097656 231.246094 C 128.574219 229.546875 127.976562 225.800781 129.347656 223.085938 C 130.714844 220.371094 133.636719 218.683594 136.632812 218.171875 C 139.628906 217.660156 142.710938 218.179688 145.652344 218.949219 C 154.714844 221.320312 166.484375 225.460938 171.066406 234.234375 C 173.097656 238.125 172.480469 243.339844 168.988281 246.199219 C 168.15625 246.882812 165.222656 248.53125 165.222656 248.53125 Z M 165.222656 248.53125 " fill-opacity="1" fill-rule="nonzero"/><path stroke-linecap="round" transform="matrix(0.3, 0, 0, 0.3, 146.483184, 236.391738)" fill="none" stroke-linejoin="miter" d="M 62.712309 36.415563 C 26.345119 28.277542 -8.537696 13.563999 -39.748636 -6.787565 C -49.136657 -12.920378 -62.222596 -20.199024 -62.704366 -36.422983 " stroke="#313131" stroke-width="6" stroke-opacity="1" stroke-miterlimit="10"/><path stroke-linecap="round" transform="matrix(0.3, 0, 0, 0.3, 137.877389, 247.068735)" fill="none" stroke-linejoin="miter" d="M -3.875151 -37.846307 C -11.609527 -41.140578 -31.661611 -52.078078 -46.218904 -44.669224 C -53.718905 -40.854119 -59.174634 -34.356723 -61.661613 -26.322868 C -64.161614 -18.275993 -64.669426 3.651092 -43.0288 16.346405 C -0.372547 41.372449 24.145684 47.179741 64.66652 52.075574 " stroke="#313131" stroke-width="6" stroke-opacity="1" stroke-miterlimit="10"/><path stroke-linecap="round" transform="matrix(0.3, 0, 0, 0.3, 129.128185, 262.78636)" fill="none" stroke-linejoin="miter" d="M -21.690305 -41.839954 C -26.390826 -44.977975 -39.672077 -46.032663 -44.698119 -43.428496 C -49.71114 -40.83735 -53.474161 -36.293079 -56.325724 -31.410266 C -60.896037 -23.597765 -63.422079 -13.871202 -60.023641 -5.472764 C -56.625203 2.938695 -47.901244 7.522029 -40.101765 12.157445 C -6.703325 32.027238 26.695115 42.834531 63.426888 46.037656 " stroke="#313131" stroke-width="6" stroke-opacity="1" stroke-miterlimit="10"/><path stroke-linecap="round" transform="matrix(0.3, 0, 0, 0.3, 124.105295, 276.600743)" fill="none" stroke-linejoin="miter" d="M -37.265047 -41.156124 C -49.231194 -39.229041 -56.50984 -25.361852 -54.621819 -13.382685 C -52.733798 -1.403517 -44.00984 8.427213 -34.270256 15.653776 C -8.645254 34.664193 24.635998 39.664194 56.511 41.16159 " stroke="#313131" stroke-width="6" stroke-opacity="1" stroke-miterlimit="10"/><path fill="#ffc84d" d="M 135.34375 198.394531 C 140.570312 197.789062 147.054688 198.234375 152.222656 199.636719 C 156.316406 200.746094 166.714844 203.738281 169.640625 205.238281 C 171.207031 206.039062 178.34375 209.21875 177.5 213.558594 C 177.074219 215.738281 176.121094 217.789062 174.464844 219.265625 C 171.644531 221.789062 166.441406 222.492188 162.667969 222.464844 C 160.769531 222.453125 158.863281 222.316406 156.972656 222.234375 C 154.578125 222.128906 152.230469 221.539062 149.984375 220.722656 C 146.96875 219.625 142.828125 217.433594 139.664062 219.148438 C 135.34375 221.488281 130.8125 223.363281 126.136719 224.871094 C 122.003906 226.203125 117.683594 227.1875 113.355469 226.9375 C 109.023438 226.683594 104.644531 225.074219 101.710938 221.871094 C 99.191406 219.117188 90.742188 211.136719 94.417969 209.414062 C 101.636719 206.03125 130.234375 198.988281 135.34375 198.394531 Z M 135.34375 198.394531 " fill-opacity="1" fill-rule="nonzero"/><path stroke-linecap="round" transform="matrix(0.3, 0, 0, 0.3, 135.321382, 222.409615)" fill="none" stroke-linejoin="miter" d="M 67.496439 -1.052883 C 47.040709 -4.295071 26.936541 -9.763821 7.665706 -17.328926 C 0.764664 -4.789863 -12.41242 4.402846 -25.498358 10.184097 C -38.584297 15.965347 -53.584298 17.319514 -67.490549 13.98618 " stroke="#313131" stroke-width="6" stroke-opacity="1" stroke-miterlimit="10"/><g fill="#ffffff" fill-opacity="1"><g transform="translate(81.437546, 344.195397)"><g><path d="M 10.84375 -0.125 C 13.40625 -0.125 15.789062 -0.769531 18 -2.0625 C 20.207031 -3.351562 21.941406 -5.117188 23.203125 -7.359375 L 22.640625 0 L 0.796875 0 C 1.015625 -0.1875 1.1875 -0.523438 1.3125 -1.015625 C 1.445312 -1.515625 1.515625 -2.28125 1.515625 -3.3125 L 1.515625 -24.6875 C 1.515625 -25.71875 1.445312 -26.476562 1.3125 -26.96875 C 1.1875 -27.46875 1.015625 -27.8125 0.796875 -28 L 11.28125 -28 C 11.039062 -27.8125 10.859375 -27.46875 10.734375 -26.96875 C 10.617188 -26.476562 10.5625 -25.71875 10.5625 -24.6875 L 10.5625 -0.125 Z M 10.84375 -0.125 "/></g></g></g><g fill="#ffffff" fill-opacity="1"><g transform="translate(105.435164, 344.195397)"><g><path d="M 6.046875 -23.484375 C 4.785156 -23.484375 3.710938 -23.921875 2.828125 -24.796875 C 1.953125 -25.679688 1.515625 -26.75 1.515625 -28 C 1.515625 -28.820312 1.710938 -29.570312 2.109375 -30.25 C 2.515625 -30.9375 3.0625 -31.484375 3.75 -31.890625 C 4.445312 -32.304688 5.210938 -32.515625 6.046875 -32.515625 C 6.867188 -32.515625 7.617188 -32.304688 8.296875 -31.890625 C 8.972656 -31.484375 9.519531 -30.9375 9.9375 -30.25 C 10.351562 -29.570312 10.5625 -28.820312 10.5625 -28 C 10.5625 -26.75 10.117188 -25.679688 9.234375 -24.796875 C 8.304688 -23.921875 7.242188 -23.484375 6.046875 -23.484375 Z M 10.5625 -3.3125 C 10.5625 -2.28125 10.617188 -1.515625 10.734375 -1.015625 C 10.859375 -0.523438 11.039062 -0.1875 11.28125 0 L 0.796875 0 C 1.015625 -0.1875 1.1875 -0.523438 1.3125 -1.015625 C 1.445312 -1.515625 1.515625 -2.28125 1.515625 -3.3125 L 1.515625 -22.28125 C 1.515625 -22.28125 1.691406 -22.125 2.046875 -21.8125 C 2.410156 -21.507812 2.972656 -21.222656 3.734375 -20.953125 C 4.492188 -20.691406 5.488281 -20.640625 6.71875 -20.796875 C 7.382812 -20.878906 8.046875 -21.023438 8.703125 -21.234375 C 9.359375 -21.453125 9.976562 -21.707031 10.5625 -22 Z M 10.5625 -3.3125 "/></g></g></g><g fill="#ffffff" fill-opacity="1"><g transform="translate(117.513967, 344.195397)"><g><path d="M 16.203125 0 C 16.441406 -0.1875 16.617188 -0.523438 16.734375 -1.015625 C 16.859375 -1.515625 16.921875 -2.28125 16.921875 -3.3125 L 16.921875 -17.40625 C 16.921875 -18.125 16.6875 -18.632812 16.21875 -18.9375 C 15.75 -19.25 15.191406 -19.359375 14.546875 -19.265625 C 13.910156 -19.171875 13.332031 -18.910156 12.8125 -18.484375 C 12.300781 -18.054688 11.988281 -17.46875 11.875 -16.71875 C 11.820312 -16.289062 11.773438 -15.863281 11.734375 -15.4375 C 11.703125 -15.007812 11.6875 -14.582031 11.6875 -14.15625 L 11.6875 -3.3125 C 11.6875 -2.28125 11.75 -1.515625 11.875 -1.015625 C 12.007812 -0.523438 12.1875 -0.1875 12.40625 0 L 1.921875 0 C 2.160156 -0.1875 2.335938 -0.523438 2.453125 -1.015625 C 2.578125 -1.515625 2.640625 -2.28125 2.640625 -3.3125 L 2.640625 -19.796875 C 2.640625 -20.273438 2.414062 -20.644531 1.96875 -20.90625 C 1.53125 -21.175781 1.140625 -21.140625 0.796875 -20.796875 C 1.972656 -22.109375 3.453125 -22.765625 5.234375 -22.765625 C 6.359375 -22.765625 7.40625 -22.515625 8.375 -22.015625 C 9.351562 -21.523438 10.140625 -20.8125 10.734375 -19.875 C 11.335938 -18.945312 11.65625 -17.828125 11.6875 -16.515625 L 11.796875 -17.359375 C 12.035156 -18.984375 12.8125 -20.273438 14.125 -21.234375 C 15.34375 -22.171875 16.640625 -22.671875 18.015625 -22.734375 C 19.390625 -22.804688 20.675781 -22.539062 21.875 -21.9375 C 23.082031 -21.34375 24.0625 -20.46875 24.8125 -19.3125 C 25.570312 -18.164062 25.953125 -16.832031 25.953125 -15.3125 L 25.953125 -3.3125 C 25.953125 -2.28125 26.019531 -1.515625 26.15625 -1.015625 C 26.289062 -0.523438 26.46875 -0.1875 26.6875 0 Z M 16.203125 0 "/></g></g></g><g fill="#ffffff" fill-opacity="1"><g transform="translate(144.991242, 344.195397)"><g><path d="M 25.640625 -2.953125 C 26.171875 -2.128906 26.625 -1.484375 27 -1.015625 C 27.375 -0.546875 27.707031 -0.207031 28 0 L 16.796875 0 L 11.515625 -8.234375 L 10.5625 -7.234375 L 10.5625 -3.3125 C 10.5625 -2.28125 10.617188 -1.515625 10.734375 -1.015625 C 10.859375 -0.523438 11.039062 -0.1875 11.28125 0 L 0.796875 0 C 1.015625 -0.1875 1.1875 -0.523438 1.3125 -1.015625 C 1.445312 -1.515625 1.515625 -2.269531 1.515625 -3.28125 L 1.59375 -24.765625 C 1.59375 -25.773438 1.539062 -26.519531 1.4375 -27 C 1.332031 -27.476562 1.171875 -27.8125 0.953125 -28 L 10.59375 -28 L 10.5625 -7.4375 L 17.796875 -14.84375 C 18.410156 -15.476562 18.691406 -16.195312 18.640625 -17 C 18.585938 -17.800781 18.300781 -18.5 17.78125 -19.09375 C 17.257812 -19.695312 16.5625 -20 15.6875 -20 L 23 -20 L 17.953125 -14.84375 Z M 25.640625 -2.953125 "/></g></g></g><g fill="#ffffff" fill-opacity="1"><g transform="translate(173.788385, 344.195397)"><g><path d="M 23.3125 -7.046875 C 23.738281 -7.472656 24.085938 -7.910156 24.359375 -8.359375 C 23.660156 -6.390625 22.5 -4.707031 20.875 -3.3125 C 19.65625 -2.28125 18.296875 -1.476562 16.796875 -0.90625 C 15.304688 -0.332031 13.757812 -0.03125 12.15625 0 C 10.582031 0 9.109375 -0.289062 7.734375 -0.875 C 6.367188 -1.46875 5.164062 -2.28125 4.125 -3.3125 C 3.082031 -4.351562 2.265625 -5.5625 1.671875 -6.9375 C 1.085938 -8.3125 0.796875 -9.785156 0.796875 -11.359375 C 0.796875 -12.929688 1.085938 -14.410156 1.671875 -15.796875 C 2.265625 -17.179688 3.082031 -18.394531 4.125 -19.4375 C 5.164062 -20.476562 6.367188 -21.289062 7.734375 -21.875 C 9.109375 -22.46875 10.582031 -22.765625 12.15625 -22.765625 L 13.203125 -22.765625 C 14.960938 -22.765625 16.609375 -22.382812 18.140625 -21.625 C 19.671875 -20.863281 20.976562 -19.820312 22.0625 -18.5 C 23.144531 -17.175781 23.882812 -15.648438 24.28125 -13.921875 L 9.5625 -13.921875 L 9.5625 -13.15625 C 9.5625 -11.769531 9.867188 -10.484375 10.484375 -9.296875 C 11.097656 -8.109375 11.941406 -7.113281 13.015625 -6.3125 C 14.097656 -5.519531 15.320312 -5.03125 16.6875 -4.84375 C 17.90625 -4.65625 19.09375 -4.757812 20.25 -5.15625 C 21.414062 -5.5625 22.4375 -6.191406 23.3125 -7.046875 Z M 9.5625 -19.640625 L 9.5625 -14.078125 L 15.515625 -14.078125 L 15.515625 -19.640625 C 15.515625 -20.460938 15.226562 -21.160156 14.65625 -21.734375 C 14.082031 -22.304688 13.382812 -22.59375 12.5625 -22.59375 C 11.726562 -22.59375 11.019531 -22.304688 10.4375 -21.734375 C 9.851562 -21.160156 9.5625 -20.460938 9.5625 -19.640625 Z M 9.5625 -19.640625 "/></g></g></g><g fill="#ffffff" fill-opacity="1"><g transform="translate(198.945885, 344.195397)"><g><path d="M 26.359375 -2.71875 C 26.359375 -2.238281 26.578125 -1.863281 27.015625 -1.59375 C 27.460938 -1.332031 27.859375 -1.375 28.203125 -1.71875 C 27.023438 -0.414062 25.546875 0.234375 23.765625 0.234375 C 22.742188 0.234375 21.785156 0.0078125 20.890625 -0.4375 C 20.003906 -0.894531 19.253906 -1.519531 18.640625 -2.3125 C 18.023438 -3.113281 17.625 -4.023438 17.4375 -5.046875 C 16.988281 -4.265625 16.398438 -3.476562 15.671875 -2.6875 C 14.953125 -1.90625 14.109375 -1.257812 13.140625 -0.75 C 12.171875 -0.25 11.03125 0 9.71875 0 C 8.09375 0 6.597656 -0.507812 5.234375 -1.53125 C 3.878906 -2.5625 2.800781 -3.9375 2 -5.65625 C 1.195312 -7.375 0.796875 -9.273438 0.796875 -11.359375 C 0.796875 -13.460938 1.195312 -15.375 2 -17.09375 C 2.800781 -18.820312 3.878906 -20.195312 5.234375 -21.21875 C 6.597656 -22.25 8.09375 -22.765625 9.71875 -22.765625 C 10.914062 -22.765625 11.945312 -22.566406 12.8125 -22.171875 C 13.6875 -21.785156 14.414062 -21.304688 15 -20.734375 C 15.582031 -20.160156 16.039062 -19.582031 16.375 -19 C 16.707031 -18.414062 16.945312 -17.925781 17.09375 -17.53125 C 17.238281 -17.144531 17.3125 -16.953125 17.3125 -16.953125 L 17.3125 -24.6875 C 17.3125 -25.71875 17.242188 -26.476562 17.109375 -26.96875 C 16.984375 -27.46875 16.8125 -27.8125 16.59375 -28 L 27.078125 -28 C 26.867188 -27.8125 26.695312 -27.46875 26.5625 -26.96875 C 26.425781 -26.476562 26.359375 -25.71875 26.359375 -24.6875 Z M 15.078125 -3.953125 C 15.535156 -3.984375 15.96875 -4.097656 16.375 -4.296875 C 16.789062 -4.492188 17.132812 -4.769531 17.40625 -5.125 C 17.375 -5.3125 17.347656 -5.492188 17.328125 -5.671875 C 17.316406 -5.859375 17.3125 -6.046875 17.3125 -6.234375 L 17.3125 -15.875 C 17.3125 -16.726562 17.039062 -17.425781 16.5 -17.96875 C 15.957031 -18.519531 15.378906 -18.796875 14.765625 -18.796875 C 13.929688 -18.796875 13.132812 -18.488281 12.375 -17.875 C 11.613281 -17.257812 10.992188 -16.398438 10.515625 -15.296875 C 10.035156 -14.191406 9.796875 -12.894531 9.796875 -11.40625 C 9.796875 -10.257812 9.941406 -9.222656 10.234375 -8.296875 C 10.535156 -7.378906 10.925781 -6.585938 11.40625 -5.921875 C 12.382812 -4.609375 13.566406 -3.953125 14.953125 -3.953125 Z M 15.078125 -3.953125 "/></g></g></g><g fill="#ffffff" fill-opacity="1"><g transform="translate(227.943003, 344.195397)"><g><path d="M 0.796875 0 C 1.015625 -0.1875 1.1875 -0.523438 1.3125 -1.015625 C 1.445312 -1.515625 1.515625 -2.28125 1.515625 -3.3125 L 1.515625 -24.6875 C 1.515625 -25.71875 1.445312 -26.476562 1.3125 -26.96875 C 1.1875 -27.46875 1.015625 -27.8125 0.796875 -28 L 11.28125 -28 C 11.039062 -27.8125 10.859375 -27.46875 10.734375 -26.96875 C 10.617188 -26.476562 10.5625 -25.71875 10.5625 -24.6875 L 10.5625 -3.3125 C 10.5625 -2.28125 10.617188 -1.515625 10.734375 -1.015625 C 10.859375 -0.523438 11.039062 -0.1875 11.28125 0 Z M 0.796875 0 "/></g></g></g><g fill="#ffffff" fill-opacity="1"><g transform="translate(240.021806, 344.195397)"><g><path d="M 16.203125 0 C 16.441406 -0.1875 16.617188 -0.523438 16.734375 -1.015625 C 16.859375 -1.515625 16.921875 -2.28125 16.921875 -3.3125 L 16.921875 -17.40625 C 16.921875 -18.125 16.6875 -18.632812 16.21875 -18.9375 C 15.75 -19.25 15.191406 -19.359375 14.546875 -19.265625 C 13.910156 -19.171875 13.332031 -18.910156 12.8125 -18.484375 C 12.300781 -18.054688 11.988281 -17.46875 11.875 -16.71875 C 11.820312 -16.289062 11.773438 -15.863281 11.734375 -15.4375 C 11.703125 -15.007812 11.6875 -14.582031 11.6875 -14.15625 L 11.6875 -3.3125 C 11.6875 -2.28125 11.75 -1.515625 11.875 -1.015625 C 12.007812 -0.523438 12.1875 -0.1875 12.40625 0 L 1.921875 0 C 2.160156 -0.1875 2.335938 -0.523438 2.453125 -1.015625 C 2.578125 -1.515625 2.640625 -2.28125 2.640625 -3.3125 L 2.640625 -19.796875 C 2.640625 -20.273438 2.414062 -20.644531 1.96875 -20.90625 C 1.53125 -21.175781 1.140625 -21.140625 0.796875 -20.796875 C 1.972656 -22.109375 3.453125 -22.765625 5.234375 -22.765625 C 6.359375 -22.765625 7.40625 -22.515625 8.375 -22.015625 C 9.351562 -21.523438 10.140625 -20.8125 10.734375 -19.875 C 11.335938 -18.945312 11.65625 -17.828125 11.6875 -16.515625 L 11.796875 -17.359375 C 12.035156 -18.984375 12.8125 -20.273438 14.125 -21.234375 C 15.34375 -22.171875 16.640625 -22.671875 18.015625 -22.734375 C 19.390625 -22.804688 20.675781 -22.539062 21.875 -21.9375 C 23.082031 -21.34375 24.0625 -20.46875 24.8125 -19.3125 C 25.570312 -18.164062 25.953125 -16.832031 25.953125 -15.3125 L 25.953125 -3.3125 C 25.953125 -2.28125 26.019531 -1.515625 26.15625 -1.015625 C 26.289062 -0.523438 26.46875 -0.1875 26.6875 0 Z M 16.203125 0 "/></g></g></g></svg>